<svg xmlns="http://www.w3.org/2000/svg" width="496" height="496" viewBox="0 0 496 496">
  <path id="Path_1" data-name="Path 1" d="M256,504C119,504,8,393,8,256S119,8,256,8,504,119,504,256,393,504,256,504ZM472,256c0-118.7-96.1-216-216-216C137.3,40,40,136.1,40,256c0,118.7,96.1,216,216,216C374.7,472,472,375.9,472,256ZM264.5,169.4l115,115.1a12.011,12.011,0,0,1,0,17l-7.1,7.1a12.011,12.011,0,0,1-17,0L256,209l-99.5,99.5a12.011,12.011,0,0,1-17,0l-7.1-7.1a12.011,12.011,0,0,1,0-17l115-115.1A12.224,12.224,0,0,1,264.5,169.4Z" transform="translate(-8 -8)" fill="#3b7937"/>
</svg>
