<svg xmlns="http://www.w3.org/2000/svg" width="640" height="448" viewBox="0 0 640 448"><g transform="translate(-4270 8816)"><path d="M543.7,200.1A111.8,111.8,0,0,0,409.6,98.3,176.026,176.026,0,0,0,99.7,171.8,160,160,0,0,0,160,480H496a144.017,144.017,0,0,0,47.7-279.9ZM496,432H160a112.026,112.026,0,0,1-16-222.9V208a127.991,127.991,0,0,1,246.4-48.6,63.99,63.99,0,0,1,96.8,81,86.366,86.366,0,0,1,8.8-.4,96,96,0,0,1,0,192Z" transform="translate(4270 -8848)"/><path d="M601.962,255.094l65.387-65.387a9.544,9.544,0,0,0,0-13.434l-13.434-13.434a9.544,9.544,0,0,0-13.434,0l-65.387,65.387-65.387-65.387a9.544,9.544,0,0,0-13.434,0l-13.434,13.434a9.543,9.543,0,0,0,0,13.434l65.387,65.387-65.387,65.387a9.543,9.543,0,0,0,0,13.434l13.434,13.434a9.544,9.544,0,0,0,13.434,0l65.387-65.387,65.387,65.387a9.543,9.543,0,0,0,13.434,0l13.434-13.434a9.544,9.544,0,0,0,0-13.434Z" transform="translate(3987.887 -8807.113)"/></g></svg>