<svg xmlns="http://www.w3.org/2000/svg" width="575.976" height="512" viewBox="0 0 575.976 512"><g transform="translate(-4548 8866)"><path d="M208.344,199.125a9.219,9.219,0,1,1-9.219-9.219A9.246,9.246,0,0,1,208.344,199.125Zm-38.719-9.219a9.219,9.219,0,1,0,9.219,9.219A9.246,9.246,0,0,0,169.625,189.906ZM236,167.781v47.938A20.282,20.282,0,0,1,215.719,236H20.281A20.282,20.282,0,0,1,0,215.719V167.781A20.282,20.282,0,0,1,20.281,147.5H66.1l-26-26c-11.616-11.616-3.365-31.482,13.045-31.482H77.438V18.438A18.432,18.432,0,0,1,95.875,0h44.25a18.432,18.432,0,0,1,18.438,18.438V90.021h24.291c16.409,0,24.614,19.866,13.045,31.482l-26,26h45.817A20.282,20.282,0,0,1,236,167.781ZM115.373,175.94a3.7,3.7,0,0,0,5.209,0l64.854-64.854a3.705,3.705,0,0,0-2.627-6.315h-39V18.438a3.7,3.7,0,0,0-3.687-3.687H95.875a3.7,3.7,0,0,0-3.687,3.688v86.334H53.146a3.711,3.711,0,0,0-2.627,6.315l64.854,64.854Zm105.877-8.159a5.548,5.548,0,0,0-5.531-5.531H155.152l-24.107,24.107a18.473,18.473,0,0,1-26.089,0L80.848,162.25H20.281a5.548,5.548,0,0,0-5.531,5.531v47.938a5.548,5.548,0,0,0,5.531,5.531H215.719a5.548,5.548,0,0,0,5.531-5.531Z" transform="translate(4718 -8675)"/><path d="M569.5,440,329.6,24c-18.4-32-64.7-32-83.2,0L6.5,440c-18.4,31.9,4.6,72,41.6,72H528C564.8,512,588,472,569.5,440ZM528,480H48a16.037,16.037,0,0,1-13.9-24l240-416a16,16,0,0,1,27.7,0l240,416A15.98,15.98,0,0,1,528,480Z" transform="translate(4547.973 -8866)"/></g></svg>