<svg xmlns="http://www.w3.org/2000/svg" width="300" height="270.454" viewBox="0 0 300 270.454"><g transform="translate(-1248 -540)"><g transform="translate(1266 561)"><g transform="translate(0 0)" opacity="0.202"><path d="M-119.006-47.985l-5.643-2.309V-64.15h-19.187l-2.822-4.157,2.822-4.618h19.187V-86.781l5.643-2.309,6.208,2.309v13.855h18.623l3.385,4.618-3.385,4.157H-112.8v13.855Zm-5.079-2.77,5.079,2.309,5.079-2.309V-64.612H-94.74l3.385-3.695-3.385-4.157h-19.187V-86.319l-5.079-2.309-5.079,2.309v13.855h-19.187l-2.822,4.157,2.822,3.695h19.187Z" transform="translate(146.657 89.09)" fill="#dbdbdb"/><g transform="translate(3.385 2.773)"><path d="M-105.955-43.754l-9.029-12.008-16.365,6.93-6.208-2.309v-5.08l16.365-6.928-9.029-12.008,2.822-4.157h6.77l9.593,12.008,16.367-6.93,6.208,2.309v5.08l-16.933,6.928L-95.8-47.911l-3.385,4.157Zm-9.029-12.47,9.591,12.009h6.208l2.822-3.695-9.593-12.47,16.365-6.928v-4.158l-5.079-2.309-16.363,7.391-9.593-12.47h-6.208l-2.822,3.695,9.593,12.47-16.365,6.928v4.157l5.079,2.309Z" transform="translate(137.557 79.314)" fill="#dbdbdb"/></g><g transform="translate(3.385 2.771)"><path d="M-127.4-43.756l-2.822-4.157,9.029-12.008-16.365-6.928v-5.08l6.208-2.309,16.365,6.928,9.029-12.008h6.77l3.385,4.157-9.593,12.008,16.929,6.928v5.08l-6.2,2.312-16.365-6.93-9.593,12.008Zm-2.257-4.157,2.822,3.695h6.208l9.593-12.008L-94.668-49.3l5.079-2.309v-4.157l-16.365-6.927,9.593-12.47-2.822-3.695h-6.208l-9.593,12.47-16.365-7.39-5.079,2.308v4.157l16.365,6.928Z" transform="translate(137.557 79.319)" fill="#dbdbdb"/></g><g transform="translate(27.652 29.76)"><g transform="translate(0)"><path d="M-47.219,76.469l-5.643-2.77V59.842H-71.485l-3.385-4.157,3.385-4.157h18.623V37.211l5.643-2.309,6.208,2.309V51.529h18.624L-19,55.686l-3.385,4.157H-41.012V73.7Zm-4.514-2.77,4.514,1.847L-42.14,73.7V59.38h19.752l2.822-3.695-2.822-3.7H-42.14V37.671l-5.079-1.847-4.514,1.847V51.989H-71.485l-2.822,3.695,2.822,3.695h19.751Z" transform="translate(74.87 -34.902)" fill="#dbdbdb"/></g><g transform="translate(3.384 2.772)"><path d="M-34.169,80.7-43.2,68.692-59.563,75.62l-6.208-2.77V68.23L-49.406,61.3l-9.029-12.47,3.385-4.157h6.208l9.593,12.008,16.366-6.928,6.209,2.773v4.618L-33.04,64.074l9.029,12.008L-27.4,80.7ZM-43.2,67.769l9.593,12.47H-27.4l2.822-4.157-9.593-12.008L-17.8,57.146V52.529l-5.079-1.849-16.365,6.928-9.593-12.47h-6.208l-2.821,3.7,9.593,12.47L-64.64,68.23v4.618l5.079,1.847Z" transform="translate(65.771 -44.676)" fill="#dbdbdb"/></g><g transform="translate(3.385 2.772)"><path d="M-55.048,80.7l-3.385-4.618L-49.4,64.072-65.77,57.144V52.526l6.208-2.77L-43.2,56.683l9.029-12.008h6.77l3.385,4.157L-33.039,61.3l16.366,6.928v4.619l-6.208,2.77-16.366-6.927L-48.84,80.7Zm-2.822-4.618,2.822,4.157h6.208l9.593-12.47,16.365,6.926,5.079-1.845V68.229L-34.168,61.3l9.593-12.47L-27.4,45.136H-33.6L-43.2,57.606l-16.365-6.928-5.077,1.847v4.618l16.363,6.928Z" transform="translate(65.77 -44.675)" fill="#dbdbdb"/></g></g><g transform="translate(48.846 28.635)"><g transform="translate(0 0)"><path d="M-9.151,19.735-13.1,17.888V14.193l3.95-1.847,4.513,1.847v3.695Zm-2.822-2.309,2.822,1.386,3.385-1.386v-2.77L-9.151,13.27l-2.822,1.386Z" transform="translate(13.1 -12.346)" fill="#dbdbdb"/></g></g><g transform="translate(75.146 35.68)"><g transform="translate(0)"><path d="M62.628,61.268l-3.95-1.847V56.187l3.95-1.847,4.514,1.847V59.42ZM59.807,59.42l2.822,1.386,3.385-1.386V56.187L62.628,54.8l-2.822,1.386Z" transform="translate(-58.678 -54.34)" fill="#dbdbdb"/></g></g><g transform="translate(52.023)"><g transform="translate(0)"><path d="M24.556-47.985l-5.643-2.309V-64.15H.285L-3.1-68.306.285-72.925H18.91V-86.781l5.645-2.309,6.208,2.309v13.855H49.384l3.385,4.618L49.384-64.15H30.761v13.855Zm-4.514-2.77,4.514,2.309,5.079-2.309V-64.612H49.384l2.821-3.695-2.822-4.157H29.633V-86.319l-5.077-2.309-4.514,2.309v13.855H.285l-2.819,4.157L.285-64.612H20.039Z" transform="translate(3.1 89.09)" fill="#dbdbdb"/></g><g transform="translate(3.385 2.771)"><path d="M38.169-43.756,28.575-55.764,12.21-48.834,6-51.145v-5.08l16.367-6.928L13.339-75.161l3.385-4.157h6.208L32.525-67.31l16.365-6.928L55.1-71.929v5.08L38.733-59.921l9.029,12.009-3.385,4.157Zm-9.594-12.47,9.593,12.008h6.208L47.2-47.912,37.6-60.382,53.966-67.31v-4.158l-5.079-2.309L32.525-66.386l-9.593-12.47H16.724L13.9-75.162,23.5-62.692,7.131-55.764v4.157L12.21-49.3Z" transform="translate(-6 79.318)" fill="#dbdbdb"/></g><g transform="translate(3.385 2.771)"><path d="M16.725-43.756,13.34-47.913l9.028-12.008L6-66.848v-5.08l6.21-2.309L28.575-67.31l9.593-12.008h6.208l3.385,4.157L38.733-63.153,55.1-56.225v5.08l-6.208,2.312-16.365-6.93L22.933-43.756ZM13.9-47.913l2.822,3.695h6.208l9.593-12.008L48.891-49.3l5.079-2.309v-4.157L37.6-62.692,47.2-75.161l-2.822-3.695H38.169l-9.593,12.47L12.21-73.776,7.131-71.468v4.157L23.5-60.382Z" transform="translate(-6 79.318)" fill="#dbdbdb"/></g></g><g transform="translate(78.039 29.76)"><g transform="translate(0)"><path d="M96.315,76.469,90.672,73.7V59.842H72.049l-3.385-4.157,3.385-4.157H90.672V37.211L96.315,34.9l6.208,2.309V51.529h18.623l3.385,4.157-3.385,4.157H102.522V73.7ZM91.8,73.7l4.514,1.847,5.079-1.847V59.38h19.751l2.822-3.695-2.822-3.695H101.394V37.671l-5.079-1.847L91.8,37.671V51.989H72.049l-2.822,3.695,2.822,3.695H91.8Z" transform="translate(-68.664 -34.902)" fill="#dbdbdb"/></g><g transform="translate(3.385 2.772)"><path d="M109.93,80.7l-9.594-12.008L83.972,75.62l-6.208-2.77V68.23L94.129,61.3,85.1,48.833l3.385-4.157h6.208l9.593,12.008,16.365-6.928,6.208,2.77v4.618l-16.365,6.929,9.029,12.008L116.138,80.7Zm-9.593-12.932,9.593,12.47h6.208l2.822-4.157-9.593-12.008,16.365-6.928V52.529l-5.079-1.847-16.366,6.926-9.593-12.47H88.486l-2.822,3.695L95.257,61.3,78.893,68.23v4.618L83.972,74.7Z" transform="translate(-77.764 -44.676)" fill="#dbdbdb"/></g><g transform="translate(3.385 2.772)"><path d="M88.486,80.7,85.1,76.08l9.029-12.008L77.764,57.144V52.526l6.208-2.77,16.365,6.928,9.593-12.008h6.208l3.385,4.157L110.495,61.3l16.365,6.928v4.619l-6.208,2.77-16.365-6.927L94.694,80.7ZM85.665,76.08l2.822,4.157h6.208l9.593-12.47,16.365,6.926,5.079-1.847V68.229L109.366,61.3l9.593-12.47-2.822-3.695H109.93l-9.593,12.47L83.972,50.679l-5.079,1.847v4.618l16.365,6.928Z" transform="translate(-77.764 -44.675)" fill="#dbdbdb"/></g></g><g transform="translate(101.448 28.635)"><g transform="translate(0 0)"><path d="M134.381,19.735l-3.95-1.847V14.193l3.95-1.847,4.514,1.847v3.695Zm-2.82-2.309,2.822,1.386,3.385-1.386v-2.77l-3.385-1.386-2.822,1.385Z" transform="translate(-130.431 -12.346)" fill="#dbdbdb"/></g></g><g transform="translate(127.749 35.68)"><g transform="translate(0)"><path d="M206.727,61.268l-4.514-1.847V56.187l4.514-1.847,3.95,1.847V59.42Zm-3.385-1.847,3.385,1.386,2.822-1.386V56.187L206.727,54.8l-3.385,1.386Z" transform="translate(-202.213 -54.34)" fill="#dbdbdb"/></g></g><g transform="translate(104.052)"><g transform="translate(0)"><path d="M168.68-47.985l-6.208-2.309V-64.15H143.85l-3.385-4.157,3.385-4.618h18.623V-86.781l6.208-2.309,5.643,2.309v13.855h18.623l3.385,4.618-3.385,4.157H174.323v13.855Zm-5.079-2.77,5.079,2.309,5.079-2.309V-64.612h19.187l2.822-3.695-2.822-4.157H173.759V-86.319l-5.079-2.309L163.6-86.319v13.855H143.85l-2.822,4.157,2.822,3.695H163.6Z" transform="translate(-140.465 89.09)" fill="#dbdbdb"/></g><g transform="translate(3.385 2.771)"><path d="M181.73-43.756l-9.593-12.008-16.365,6.93-6.208-2.309v-5.08l16.929-6.93L156.9-75.161l3.385-4.157h6.77l9.029,12.008,16.367-6.928,6.208,2.309v5.08l-16.365,6.928,9.029,12.008L188.5-43.756Zm-9.593-12.47,9.593,12.008h6.208l2.822-3.695-9.593-12.47,16.365-6.928v-4.157l-5.079-2.309-16.365,7.391-9.594-12.47h-6.208l-2.822,3.695,9.593,12.47-16.365,6.928v4.157l5.079,2.309Z" transform="translate(-149.564 79.318)" fill="#dbdbdb"/></g><g transform="translate(3.385 2.771)"><path d="M160.287-43.756,156.9-47.913,166.5-59.921l-16.93-6.928v-5.08l6.208-2.309,16.365,6.928,9.593-12.008h6.77l2.822,4.157L182.3-63.154l16.365,6.928v5.08l-6.208,2.312-16.365-6.93-9.029,12.008Zm-2.822-4.157,2.822,3.695h6.208l9.593-12.008L192.453-49.3l5.079-2.309v-4.157l-16.365-6.927,9.593-12.47-2.822-3.695h-6.208l-9.593,12.47-16.365-7.39-5.079,2.308v4.157l16.365,6.928Z" transform="translate(-149.565 79.319)" fill="#dbdbdb"/></g></g><g transform="translate(130.065 29.759)"><g transform="translate(0 0)"><path d="M240.44,76.468l-6.208-2.77V59.841H215.61l-3.385-4.157,3.385-4.157h18.623V37.21l6.207-2.31,5.643,2.309V51.528h18.623l3.385,4.157-3.385,4.157H246.083V73.7Zm-5.079-2.77,5.079,1.847,5.079-1.847V59.379h19.187l2.822-3.695-2.822-3.695H245.519V37.67l-5.079-1.846-5.078,1.846V51.988H215.61l-2.822,3.695,2.822,3.695h19.751Z" transform="translate(-212.225 -34.9)" fill="#dbdbdb"/></g><g transform="translate(3.384 2.773)"><path d="M253.49,80.7,243.9,68.692,227.532,75.62l-6.208-2.77V68.23L238.253,61.3l-9.593-12.47,3.385-4.157h6.77l9.029,12.008,16.365-6.928,6.208,2.77v4.618l-16.363,6.929,9.029,12.008L260.262,80.7ZM243.9,67.769l9.593,12.47H259.7l2.822-4.157-9.6-12.008,16.365-6.928V52.529l-5.079-1.847-16.363,6.926-9.594-12.47h-6.208l-2.822,3.695,9.593,12.47L222.453,68.23v4.618l5.079,1.847Z" transform="translate(-221.324 -44.676)" fill="#dbdbdb"/></g><g transform="translate(3.384 2.773)"><path d="M232.047,80.7l-3.385-4.618,9.593-12.008-16.93-6.928V52.526l6.208-2.77L243.9,56.683l9.593-12.008h6.77l2.822,4.157L254.055,61.3l16.365,6.928v4.619l-6.208,2.77-16.365-6.927L238.819,80.7Zm-2.822-4.618,2.822,4.157h6.208l9.593-12.47,16.365,6.926,5.079-1.847V68.229L252.925,61.3l9.593-12.47L259.7,45.136h-6.207L243.9,57.606l-16.363-6.928-5.079,1.847v4.618l16.365,6.928Z" transform="translate(-221.325 -44.675)" fill="#dbdbdb"/></g></g><g transform="translate(154.052 28.635)"><g transform="translate(0 0)"><path d="M278.507,19.735l-4.514-1.847V14.193l4.514-1.847,3.95,1.847v3.695Zm-3.385-2.309,3.385,1.386,2.822-1.386v-2.77l-2.822-1.386-3.385,1.386Z" transform="translate(-273.993 -12.346)" fill="#dbdbdb"/></g></g><g transform="translate(180.352 35.68)"><g transform="translate(0)"><path d="M350.288,61.268l-4.514-1.847V56.187l4.514-1.847,3.95,1.847V59.42ZM346.9,59.42l3.385,1.386,3.385-1.386V56.187L350.288,54.8,346.9,56.187Z" transform="translate(-345.774 -54.34)" fill="#dbdbdb"/></g></g><g transform="translate(156.053)"><g transform="translate(0)"><path d="M312.24-47.985l-6.208-2.309V-64.15H287.411l-3.385-4.157,3.385-4.618h18.623V-86.781l6.206-2.309,5.643,2.309v13.855h19.187l3.385,4.618-3.385,4.157H317.883v13.855Zm-5.079-2.77,5.079,2.309,5.079-2.309V-64.612h19.187l2.822-3.695-2.822-4.157H317.319V-86.319l-5.079-2.309-5.079,2.309v13.855H287.974l-3.385,4.157,3.385,3.695h19.187Z" transform="translate(-284.026 89.09)" fill="#dbdbdb"/></g><g transform="translate(3.95 2.773)"><path d="M325.725-43.754l-9.593-12.008-16.363,6.93-5.643-2.309v-5.08l16.365-6.928L300.9-75.157l3.385-4.157h6.77l9.029,12.008,16.931-6.93,5.643,2.309v5.08l-16.365,6.928,9.593,12.008L332.5-43.754Zm-9.593-12.47,10.155,12.008h5.643l2.822-3.695-9.589-12.47,16.365-6.928v-4.158l-4.514-2.309-16.93,7.391-9.593-12.47h-5.643l-3.385,3.695,9.593,12.47L294.69-55.762v4.157l5.079,2.309Z" transform="translate(-294.126 79.314)" fill="#dbdbdb"/></g><g transform="translate(3.95 2.771)"><path d="M304.284-43.756,300.9-47.913l9.593-12.008-16.366-6.928v-5.08l5.643-2.309,16.365,6.928,9.591-12.008h6.77l3.385,4.157-9.593,12.008,16.365,6.928v5.08l-5.638,2.312-16.929-6.93-9.029,12.008Zm-2.822-4.157,3.385,3.695h5.643l9.593-12.008L337.013-49.3l4.514-2.309v-4.157l-16.363-6.927,9.593-12.47-2.822-3.695h-5.643l-10.155,12.47-16.368-7.39-5.079,2.308v4.157l16.365,6.928Z" transform="translate(-294.126 79.318)" fill="#dbdbdb"/></g></g><g transform="translate(180.419 29.76)"><g transform="translate(0)"><path d="M384,76.469l-6.207-2.77V59.842H359.171l-3.385-4.157,3.385-4.157h18.623V37.211L384,34.9l5.645,2.309V51.529h19.187l3.385,4.157-3.385,4.157H389.646V73.7Zm-5.079-2.77L384,75.546l5.079-1.847V59.38h19.187l2.822-3.695-2.822-3.695H389.079V37.671L384,35.824l-5.078,1.847V51.989H359.736l-3.385,3.695,3.385,3.695h19.187Z" transform="translate(-355.786 -34.902)" fill="#dbdbdb"/></g><g transform="translate(3.949 2.771)"><path d="M397.487,80.7l-9.593-12.008-16.365,6.928-5.643-2.77V68.23L382.25,61.3l-9.593-12.47,3.385-4.157h6.77l9.029,12.008,16.929-6.928,5.643,2.77v4.618l-16.363,6.929,9.593,12.008L404.259,80.7Zm-9.593-12.932,10.155,12.47h5.643l2.822-4.157-9.591-12.008,16.364-6.928V52.529l-4.514-1.847-16.928,6.926-9.593-12.47h-5.643l-3.385,3.695,9.593,12.47L366.449,68.23v4.618l5.079,1.847Z" transform="translate(-365.885 -44.675)" fill="#dbdbdb"/></g><g transform="translate(3.949 2.772)"><path d="M376.043,80.7l-3.385-4.618,9.593-12.008-16.365-6.928V52.526l5.643-2.77,16.365,6.928,9.593-12.008h6.77l3.385,4.157L398.05,61.3l16.367,6.927v4.619l-5.643,2.77-16.929-6.927L382.815,80.7Zm-2.822-4.618,3.385,4.157h5.643l9.593-12.47,16.931,6.926,4.512-1.845V68.229L396.923,61.3l9.593-12.47-2.822-3.695h-5.643L387.9,57.607l-16.367-6.928-5.079,1.847v4.618l16.365,6.928Z" transform="translate(-365.886 -44.675)" fill="#dbdbdb"/></g></g><g transform="translate(206.654 28.635)"><g transform="translate(0 0)"><path d="M422.067,19.735l-4.514-1.847V14.193l4.514-1.847,3.95,1.847v3.695Zm-3.385-2.309,3.385,1.386,3.385-1.386v-2.77l-3.385-1.386-3.385,1.386Z" transform="translate(-417.553 -12.346)" fill="#dbdbdb"/></g></g><g transform="translate(231.77 35.68)"><g transform="translate(0)"><path d="M493.846,61.268l-4.514-1.847V56.187l4.514-1.847,3.95,1.847V59.42Zm-3.385-1.847,3.385,1.386,3.385-1.386V56.187L493.846,54.8l-3.385,1.386Z" transform="translate(-489.332 -54.34)" fill="#dbdbdb"/></g></g><g transform="translate(208.07)"><g transform="translate(0)"><path d="M455.8-47.985l-6.207-2.309V-64.15H430.971l-3.385-4.157,3.385-4.618h18.623V-86.781L455.8-89.09l5.643,2.309v13.855h19.187l3.385,4.618-3.385,4.157H461.446v13.855Zm-5.079-2.77,5.079,2.309,5.079-2.309V-64.612h19.187l2.822-3.695-2.822-4.157H460.88V-86.319L455.8-88.628l-5.079,2.309v13.855H431.536l-2.822,4.157,2.822,3.695h19.187Z" transform="translate(-427.586 89.09)" fill="#dbdbdb"/></g><g transform="translate(3.95 2.773)"><path d="M469.288-43.754l-9.593-12.008-16.365,6.93-5.643-2.309v-5.08l16.365-6.928-9.593-12.008,3.385-4.157h6.77l9.593,12.008,16.367-6.93,5.643,2.309v5.08l-16.365,6.928,9.593,12.008-3.385,4.157Zm-9.029-12.47,9.593,12.008h5.643l2.822-3.695-9.593-12.47,16.929-6.928v-4.158l-5.079-2.309-16.929,7.391-9.593-12.47h-5.643l-2.822,3.695,9.593,12.47-16.93,6.928v4.157l5.079,2.309Z" transform="translate(-437.686 79.314)" fill="#dbdbdb"/></g><g transform="translate(3.95 2.771)"><path d="M447.844-43.756l-3.385-4.157,9.593-12.008-16.366-6.928v-5.08l5.643-2.309,16.365,6.928,9.593-12.008h6.77l3.385,4.157L469.85-63.154l16.365,6.928v5.08l-5.64,2.312-16.365-6.93-9.593,12.008Zm-2.257-4.157,2.822,3.695h5.643l9.593-12.008L480.574-49.3l5.079-2.309v-4.157l-16.929-6.927,9.593-12.47-2.822-3.695h-5.643l-9.593,12.47-16.929-7.39-5.079,2.308v4.157l16.929,6.928Z" transform="translate(-437.686 79.319)" fill="#dbdbdb"/></g></g><g transform="translate(45.025 1.847)"><g transform="translate(0)"><path d="M-15.4-68.319l-7.9-3.695v-6.466l7.9-3.695,7.9,3.695v6.466Zm-6.77-3.695,6.77,2.77,7.336-2.77v-6.466L-15.4-81.25l-6.77,2.77Z" transform="translate(23.3 82.174)" fill="#dbdbdb"/></g><g transform="translate(3.949 3.232)"><path d="M-9.151-63.309-13.1-65.156v-3.695L-9.151-70.7l4.514,1.849v3.695Zm-2.822-2.309,2.822,1.386,3.385-1.386v-2.77l-3.385-1.386-2.822,1.386Z" transform="translate(13.1 70.7)" fill="#dbdbdb"/></g></g><g transform="translate(97.539 1.847)"><path d="M128.131-68.319l-7.9-3.695v-6.466l7.9-3.695,8.465,3.695v6.466Zm-6.77-3.695,6.77,2.77,7.336-2.77v-6.466l-7.336-2.77-6.77,2.77Z" transform="translate(-120.23 82.174)" fill="#dbdbdb"/><g transform="translate(3.95 3.233)"><path d="M134.381-63.308l-3.95-1.847V-68.85l3.95-1.847L138.9-68.85v3.695Zm-2.82-2.309,2.822,1.386,3.385-1.386v-2.77l-3.385-1.386-2.822,1.385Z" transform="translate(-130.431 70.697)" fill="#dbdbdb"/></g></g><g transform="translate(150.06 1.847)"><g transform="translate(0)"><path d="M272.256-68.319l-8.465-3.695v-6.466l8.465-3.695,7.9,3.695v6.466Zm-7.336-3.695,7.336,2.77,6.77-2.77v-6.466l-6.77-2.77-7.336,2.77Z" transform="translate(-263.791 82.174)" fill="#dbdbdb"/></g><g transform="translate(3.951 3.233)"><path d="M278.507-63.308l-4.514-1.847V-68.85l4.514-1.847,3.95,1.847v3.695Zm-3.385-2.309,3.385,1.386,2.822-1.386v-2.77l-2.822-1.386-3.385,1.386Z" transform="translate(-273.993 70.697)" fill="#dbdbdb"/></g></g><g transform="translate(203.141 1.847)"><path d="M416.252-68.319l-7.9-3.695v-6.466l7.9-3.695,7.9,3.695v6.466Zm-7.336-3.695,7.336,2.77,6.77-2.77v-6.466l-6.77-2.77-7.336,2.77Z" transform="translate(-408.351 82.174)" fill="#dbdbdb"/><g transform="translate(3.386 3.233)"><path d="M422.067-63.308l-4.514-1.847V-68.85l4.514-1.847,3.95,1.847v3.695Zm-3.385-2.309,3.385,1.386,3.385-1.386v-2.77l-3.385-1.386-3.385,1.386Z" transform="translate(-417.553 70.697)" fill="#dbdbdb"/></g></g><g transform="translate(0 59.947)"><path d="M-119.006,201.017l-5.643-2.309V184.852h-19.187l-2.822-4.618,2.822-4.157h19.187V162.221l5.643-2.309,6.208,2.309v13.855h18.623l3.385,4.157-3.385,4.618H-112.8v13.856Zm-5.079-2.77,5.079,2.309,5.079-2.309V183.929H-94.74l3.385-3.695-3.385-3.695h-19.187V162.683l-5.079-2.309-5.079,2.309v13.856h-19.187l-2.822,3.695,2.822,3.695h19.187Z" transform="translate(146.657 -159.912)" fill="#dbdbdb"/><g transform="translate(3.385 2.772)"><path d="M-105.955,205.247l-9.029-12.008-16.365,6.929-6.208-2.309v-5.08l16.365-6.928-9.029-12.008,2.822-4.157h6.77l9.593,12.008,16.367-6.93,6.208,2.309v5.08l-16.933,6.929L-95.8,201.09l-3.385,4.157Zm-9.029-12.932,9.593,12.47h6.208l2.822-3.695-9.593-12.47,16.365-6.928v-4.159l-5.079-2.309-16.365,6.928-9.593-12.008h-6.208l-2.822,3.695,9.593,12.008-16.365,7.39V197.4l5.079,2.309Z" transform="translate(137.557 -169.686)" fill="#dbdbdb"/></g><g transform="translate(3.385 2.771)"><path d="M-127.4,205.246l-2.822-4.157,9.029-12.008-16.365-6.928v-5.08l6.208-2.309,16.365,6.928,9.029-12.008h6.77l3.385,4.157-9.593,12.008,16.929,6.928v5.08l-6.2,2.311-16.365-6.929-9.593,12.008Zm-2.257-4.157,2.822,3.695h6.208l9.593-12.47,16.365,7.39,5.079-2.309v-4.157l-16.365-7.39,9.593-12.008-2.822-3.695h-6.208l-9.593,12.008-16.365-6.928-5.079,2.309v4.157l16.365,6.928Z" transform="translate(137.557 -169.683)" fill="#dbdbdb"/></g></g><g transform="translate(27.652 89.672)"><g transform="translate(0)"><path d="M-47.219,325.471l-5.643-2.77V308.844H-71.485l-3.385-4.157,3.385-4.618h18.623V286.213l5.643-2.309,6.208,2.309v13.855h18.624L-19,304.687l-3.385,4.157H-41.012V322.7Zm-4.514-2.77,4.514,1.847,5.079-1.847V308.383h19.752l2.822-3.695L-22.388,301H-42.14V286.678l-5.079-2.309-4.514,2.309V301H-71.485l-2.822,3.695,2.822,3.695h19.751Z" transform="translate(74.87 -283.904)" fill="#dbdbdb"/></g><g transform="translate(3.384 2.772)"><path d="M-34.169,329.7l-9.029-12.47-16.365,6.928-6.208-2.309v-5.08l16.365-6.928-9.029-12.007,3.385-4.157h6.208l9.593,12.008,16.366-6.926,6.208,2.309v5.08l-16.365,6.928,9.029,12.007L-27.4,329.7ZM-43.2,316.771l9.593,12.008H-27.4l2.822-3.695-9.593-12.008,16.365-7.39V301.53l-5.079-2.31-16.365,7.39-9.593-12.47h-6.208l-2.821,3.7,9.593,12.47-16.364,6.927v4.157l5.079,2.309Z" transform="translate(65.771 -293.678)" fill="#dbdbdb"/></g><g transform="translate(3.385 2.771)"><path d="M-55.048,329.7l-3.385-4.618,9.029-12.008-16.367-6.928v-5.08l6.208-2.309,16.365,6.928,9.029-12.008h6.77l3.385,4.157-9.027,12.009,16.366,6.928v5.08l-6.208,2.77-16.365-7.39-9.593,12.47Zm-2.822-4.618,2.822,3.695h6.208l9.593-12.008,16.365,6.928,5.079-2.309V317.23L-34.168,310.3l9.593-12.47-2.822-3.695H-33.6l-9.593,12.47-16.365-7.39-5.076,2.311v4.157l16.365,7.39Z" transform="translate(65.77 -293.675)" fill="#dbdbdb"/></g></g><g transform="translate(48.845 87.172)"><g transform="translate(0)"><path d="M-9.152,268.274l-3.95-1.386v-3.7l3.95-1.847,4.514,1.847v3.695Zm-2.822-1.847,2.822,1.386,3.385-1.386v-2.77l-3.385-1.386-2.822,1.386Z" transform="translate(13.102 -261.346)" fill="#dbdbdb"/></g></g><g transform="translate(75.146 97.714)"><g transform="translate(0)"><path d="M62.628,310.27l-3.95-1.847v-3.233l3.95-1.847,4.514,1.847v3.233Zm-2.822-2.309,2.822,1.386,3.385-1.386v-2.77L62.628,303.8l-2.822,1.386Z" transform="translate(-58.678 -303.342)" fill="#dbdbdb"/></g></g><g transform="translate(52.023 59.947)"><g transform="translate(0)"><path d="M24.556,201.017l-5.643-2.309V184.852H.285L-3.1,180.234l3.385-4.157H18.91V162.221l5.643-2.309,6.208,2.309v13.855H49.384l3.385,4.157-3.385,4.618H30.761v13.856Zm-4.514-2.77,4.514,2.309,5.079-2.309V183.929H49.384l2.822-3.695-2.822-3.695H29.633V162.683l-5.077-2.307-4.514,2.309v13.853H.285l-2.822,3.695,2.822,3.695H20.039Z" transform="translate(3.1 -159.912)" fill="#dbdbdb"/></g><g transform="translate(3.385 2.77)"><path d="M38.169,205.246l-9.593-12.008L12.21,200.167,6,197.856v-5.08l16.365-6.928L13.339,173.84l3.385-4.157h6.208l9.593,12.008,16.365-6.929,6.208,2.309v5.08l-16.365,6.929,9.029,12.008-3.385,4.157Zm-9.593-12.932,9.593,12.47h6.208L47.2,201.09,37.6,188.619l16.362-6.928v-4.159l-5.079-2.309-16.362,6.93-9.593-12.008H16.724L13.9,173.84,23.5,185.848l-16.365,7.39V197.4l5.079,2.309Z" transform="translate(-6 -169.683)" fill="#dbdbdb"/></g><g transform="translate(3.385 2.771)"><path d="M16.725,205.246l-3.385-4.157,9.029-12.008L6,182.153v-5.08l6.208-2.309,16.365,6.928,9.593-12.008h6.208l3.385,4.157-9.025,12.009L55.1,192.776v5.08l-6.208,2.31-16.365-6.929-9.593,12.008ZM13.9,201.089l2.822,3.695h6.208l9.593-12.47,16.365,7.39,5.079-2.309v-4.157L37.6,185.848,47.2,173.84l-2.822-3.695H38.169l-9.593,12.008L12.21,175.225l-5.079,2.307v4.157L23.5,188.617Z" transform="translate(-6 -169.683)" fill="#dbdbdb"/></g></g><g transform="translate(78.039 89.672)"><g transform="translate(0)"><path d="M96.315,325.471l-5.643-2.77V308.844H72.049l-3.385-4.157,3.385-4.618H90.672V286.213l5.643-2.309,6.208,2.309v13.855h18.623l3.385,4.618-3.385,4.157H102.522V322.7ZM91.8,322.7l4.514,1.847,5.079-1.847V308.383h19.751l2.822-3.695-2.822-3.695H101.394V286.676l-5.079-2.309L91.8,286.676V301H72.049l-2.822,3.695,2.822,3.695H91.8Z" transform="translate(-68.664 -283.904)" fill="#dbdbdb"/></g><g transform="translate(3.385 2.772)"><path d="M109.93,329.7l-9.593-12.47L83.972,324.16l-6.208-2.309v-5.08l16.365-6.929L85.1,297.835l3.385-4.157h6.208l9.593,12.008,16.366-6.926,6.208,2.309v5.08l-16.365,6.928,9.029,12.008-3.385,4.618Zm-9.593-12.932,9.593,12.008h6.208l2.822-3.695-9.593-12.008,16.365-7.39V301.53l-5.079-2.309-16.366,7.389-9.593-12.47H88.486l-2.822,3.695,9.593,12.47-16.365,6.928v4.157l5.079,2.309Z" transform="translate(-77.764 -293.678)" fill="#dbdbdb"/></g><g transform="translate(3.385 2.771)"><path d="M88.486,329.7,85.1,325.082l9.029-12.008-16.367-6.928v-5.08l6.208-2.309,16.365,6.928,9.593-12.008h6.208l3.385,4.157-9.028,12.009,16.365,6.928v5.08l-6.208,2.77-16.365-7.39L94.694,329.7Zm-2.822-4.618,2.822,3.695h6.208l9.593-12.008,16.365,6.928,5.079-2.309V317.23L109.366,310.3l9.593-12.47-2.822-3.695H109.93l-9.593,12.47-16.365-7.39-5.079,2.311v4.157l16.365,7.39Z" transform="translate(-77.764 -293.675)" fill="#dbdbdb"/></g></g><g transform="translate(101.448 87.172)"><path d="M134.381,268.274l-3.95-1.386v-3.7l3.95-1.847,4.514,1.847v3.695Zm-2.822-1.847,2.822,1.386,3.385-1.386v-2.77l-3.385-1.386-2.822,1.386Z" transform="translate(-130.431 -261.346)" fill="#dbdbdb"/></g><g transform="translate(127.749 97.714)"><g transform="translate(0)"><path d="M206.727,310.27l-4.514-1.847v-3.233l4.514-1.847,3.95,1.847v3.233Zm-3.385-2.309,3.385,1.386,2.822-1.386v-2.77l-2.822-1.386-3.385,1.386Z" transform="translate(-202.213 -303.342)" fill="#dbdbdb"/></g></g><g transform="translate(104.052 59.947)"><g transform="translate(0)"><path d="M168.68,201.017l-6.208-2.309V184.852H143.85l-3.385-4.618,3.385-4.157h18.623V162.221l6.208-2.309,5.643,2.309v13.855h18.623l3.385,4.157-3.385,4.618H174.323v13.856Zm-5.079-2.77,5.079,2.309,5.079-2.309V183.929h19.187l2.822-3.695-2.822-3.695H173.759V162.683l-5.079-2.309-5.079,2.309v13.856H143.85l-2.822,3.695,2.822,3.695H163.6Z" transform="translate(-140.465 -159.912)" fill="#dbdbdb"/></g><g transform="translate(3.385 2.772)"><path d="M181.73,205.247l-9.593-12.008-16.365,6.929-6.208-2.309v-5.08l16.929-6.928L156.9,173.843l3.385-4.157h6.77l9.029,12.008,16.367-6.93,6.208,2.309v5.08l-16.365,6.929,9.029,12.008-2.822,4.157Zm-9.593-12.932,9.593,12.47h6.208l2.822-3.695-9.593-12.47,16.365-6.928v-4.159l-5.079-2.309-16.365,6.928-9.593-12.008h-6.208l-2.822,3.695,9.593,12.008-16.365,7.39V197.4l5.079,2.309Z" transform="translate(-149.564 -169.686)" fill="#dbdbdb"/></g><g transform="translate(3.386 2.771)"><path d="M160.287,205.246l-3.385-4.157,9.593-12.008-16.929-6.928v-5.08l6.208-2.309,16.365,6.928,9.593-12.008h6.77l2.822,4.157L182.3,185.848l16.365,6.928v5.08l-6.208,2.31-16.365-6.928-9.029,12.008Zm-2.822-4.157,2.822,3.695h6.208l9.593-12.47,16.365,7.39,5.079-2.309v-4.157l-16.365-7.39,9.593-12.008-2.822-3.695h-6.208l-9.593,12.008-16.365-6.928-5.079,2.309v4.157l16.365,6.928Z" transform="translate(-149.566 -169.683)" fill="#dbdbdb"/></g></g><g transform="translate(130.065 89.67)"><g transform="translate(0 0)"><path d="M240.44,325.469l-6.208-2.77V308.842H215.61l-3.385-4.157,3.385-4.618h18.623V286.211l6.207-2.311,5.643,2.309v13.855h18.623l3.385,4.618-3.385,4.157H246.083V322.7Zm-5.079-2.77,5.079,1.847,5.079-1.847V308.381h19.187l2.822-3.695-2.822-3.695H245.519V286.674l-5.079-2.309-5.079,2.309v14.319H215.61l-2.822,3.695,2.822,3.695h19.751Z" transform="translate(-212.225 -283.9)" fill="#dbdbdb"/></g><g transform="translate(3.384 2.774)"><path d="M253.49,329.7l-9.593-12.47-16.365,6.928-6.208-2.309v-5.08l16.929-6.928-9.593-12.007,3.385-4.157h6.77l9.029,12.008,16.367-6.926,6.208,2.309v5.08l-16.365,6.926,9.029,12.008-2.822,4.618ZM243.9,316.771l9.593,12.008H259.7l2.822-3.695-9.6-12.008,16.365-7.39V301.53l-5.079-2.309-16.365,7.39-9.593-12.47h-6.208l-2.822,3.695,9.593,12.47-16.365,6.928v4.157l5.079,2.309Z" transform="translate(-221.324 -293.678)" fill="#dbdbdb"/></g><g transform="translate(3.385 2.774)"><path d="M232.047,329.7l-3.385-4.618,9.593-12.008-16.929-6.928v-5.08l6.208-2.309,16.365,6.928,9.593-12.008h6.77l2.822,4.157-9.029,12.008,16.365,6.928v5.08l-6.207,2.77-16.365-7.39-9.029,12.47Zm-2.822-4.618,2.822,3.695h6.208l9.593-12.008,16.365,6.928,5.079-2.309V317.23L252.925,310.3l9.593-12.47-2.822-3.695h-6.208l-9.593,12.47-16.365-7.39-5.079,2.309v4.157l16.365,7.39Z" transform="translate(-221.326 -293.676)" fill="#dbdbdb"/></g></g><g transform="translate(154.052 87.172)"><g transform="translate(0)"><path d="M278.507,268.274l-4.514-1.386v-3.7l4.514-1.847,3.95,1.847v3.695Zm-3.385-1.847,3.385,1.386,2.822-1.386v-2.77l-2.822-1.386-3.385,1.386Z" transform="translate(-273.993 -261.346)" fill="#dbdbdb"/></g></g><g transform="translate(180.352 97.714)"><g transform="translate(0)"><path d="M350.288,310.27l-4.514-1.847v-3.233l4.514-1.847,3.95,1.847v3.233ZM346.9,307.96l3.385,1.386,3.385-1.386v-2.77l-3.385-1.386L346.9,305.19Z" transform="translate(-345.774 -303.342)" fill="#dbdbdb"/></g></g><g transform="translate(75.146 118.389)"><g transform="translate(0 0)"><path d="M62.628,393.279l-3.95-1.847v-3.7l3.95-1.386,4.515,1.386v3.695Zm-2.822-2.309,2.822,1.386,3.385-1.386V388.2l-3.385-1.386L59.807,388.2Z" transform="translate(-58.678 -386.349)" fill="#dbdbdb"/></g></g><g transform="translate(127.749 118.389)"><g transform="translate(0 0)"><path d="M206.727,393.279l-4.514-1.847v-3.7l4.514-1.386,3.95,1.386v3.695Zm-3.385-2.309,3.385,1.386,2.822-1.386V388.2l-2.822-1.386-3.385,1.386Z" transform="translate(-202.213 -386.349)" fill="#dbdbdb"/></g></g><g transform="translate(180.352 118.389)"><g transform="translate(0 0)"><path d="M350.288,393.279l-4.514-1.847v-3.7l4.514-1.386,3.95,1.386v3.695ZM346.9,390.97l3.385,1.386,3.385-1.386V388.2l-3.385-1.386L346.9,388.2Z" transform="translate(-345.774 -386.349)" fill="#dbdbdb"/></g></g><g transform="translate(156.053 59.947)"><g transform="translate(0)"><path d="M312.24,201.017l-6.208-2.309V184.852H287.411l-3.385-4.618,3.385-4.157h18.623V162.221l6.208-2.309,5.643,2.309v13.855h19.187l3.385,4.157-3.385,4.618H317.884v13.856Zm-5.079-2.77,5.079,2.309,5.079-2.309V183.929h19.187l2.822-3.695-2.822-3.695H317.319V162.683l-5.079-2.307-5.079,2.309v13.853H287.974l-3.385,3.695,3.385,3.695h19.187Z" transform="translate(-284.026 -159.912)" fill="#dbdbdb"/></g><g transform="translate(3.95 2.772)"><path d="M325.725,205.247l-9.593-12.008-16.363,6.929-5.643-2.309v-5.08l16.365-6.928L300.9,173.843l3.385-4.157h6.77l9.029,12.008,16.931-6.93,5.643,2.309v5.08l-16.365,6.928,9.593,12.008-3.385,4.157Zm-9.593-12.932,10.155,12.47h5.643l2.822-3.695-9.593-12.47,16.365-6.928v-4.159l-4.514-2.309-16.929,6.928-9.593-12.008h-5.643l-3.385,3.695,9.593,12.008-16.365,7.39V197.4l5.079,2.309Z" transform="translate(-294.126 -169.686)" fill="#dbdbdb"/></g><g transform="translate(3.95 2.771)"><path d="M304.284,205.246l-3.385-4.157,9.593-12.008-16.365-6.928v-5.08l5.643-2.309,16.365,6.928,9.593-12.008h6.77l3.385,4.157-9.593,12.008,16.365,6.928v5.08l-5.642,2.311-16.929-6.928-9.029,12.008Zm-2.822-4.157,3.385,3.695h5.643l9.593-12.47,16.929,7.39,4.514-2.309v-4.157l-16.365-7.39,9.593-12.008-2.822-3.695h-5.643l-10.155,12.008-16.365-6.928-5.079,2.309v4.157l16.365,6.928Z" transform="translate(-294.127 -169.683)" fill="#dbdbdb"/></g></g><g transform="translate(180.419 89.672)"><g transform="translate(0)"><path d="M384,325.471l-6.207-2.77V308.844H359.171l-3.385-4.157,3.385-4.618h18.623V286.213L384,283.9l5.643,2.309v13.855h19.187l3.385,4.618-3.385,4.157H389.646V322.7Zm-5.079-2.77L384,324.548l5.079-1.847V308.383h19.187l2.822-3.695-2.822-3.695H389.079V286.676L384,284.367l-5.079,2.309V301H359.735l-3.385,3.695,3.385,3.695h19.187Z" transform="translate(-355.786 -283.904)" fill="#dbdbdb"/></g><g transform="translate(3.949 2.771)"><path d="M397.487,329.7l-9.593-12.47-16.365,6.928-5.643-2.309v-5.08l16.365-6.929-9.593-12.008,3.385-4.157h6.77l9.029,12.008,16.931-6.925,5.643,2.309v5.08l-16.365,6.928,9.593,12.008-3.385,4.618Zm-9.593-12.932,10.155,12.008h5.643l2.822-3.695-9.593-12.008,16.366-7.39v-4.156l-4.514-2.309-16.929,7.39-9.593-12.47h-5.643l-3.385,3.695,9.593,12.47-16.365,6.928v4.157l5.079,2.309Z" transform="translate(-365.885 -293.676)" fill="#dbdbdb"/></g><g transform="translate(3.949 2.772)"><path d="M376.043,329.7l-3.385-4.618,9.593-12.008-16.365-6.928v-5.08l5.643-2.309,16.365,6.928,9.593-12.008h6.77l3.385,4.157-9.591,12.008,16.365,6.928v5.08l-5.643,2.77-16.929-7.39-9.029,12.47Zm-2.822-4.618,3.385,3.695h5.643l9.593-12.008,16.929,6.928,4.514-2.309V317.23L396.923,310.3l9.593-12.47-2.822-3.695h-5.643L387.9,306.608l-16.365-7.39-5.079,2.309v4.157l16.365,7.39Z" transform="translate(-365.886 -293.676)" fill="#dbdbdb"/></g></g><g transform="translate(206.654 87.172)"><path d="M422.067,268.274l-4.514-1.386v-3.7l4.514-1.847,3.95,1.847v3.695Zm-3.385-1.847,3.385,1.386,3.385-1.386v-2.77l-3.385-1.386-3.385,1.386Z" transform="translate(-417.553 -261.346)" fill="#dbdbdb"/></g><g transform="translate(231.77 97.714)"><g transform="translate(0)"><path d="M493.846,310.27l-4.514-1.847v-3.233l4.514-1.847,3.95,1.847v3.233Zm-3.385-2.309,3.385,1.386,3.385-1.386v-2.77l-3.385-1.386-3.385,1.386Z" transform="translate(-489.332 -303.342)" fill="#dbdbdb"/></g></g><g transform="translate(208.07 59.947)"><g transform="translate(0)"><path d="M455.8,201.017l-6.207-2.309V184.852H430.971l-3.385-4.618,3.385-4.157h18.623V162.221l6.207-2.309,5.643,2.309v13.855h19.187l3.385,4.157-3.385,4.618H461.446v13.856Zm-5.079-2.77,5.079,2.309,5.079-2.309V183.929h19.187l2.822-3.695-2.822-3.695H460.88V162.683l-5.079-2.309-5.079,2.309v13.856H431.536l-2.822,3.695,2.822,3.695h19.187Z" transform="translate(-427.586 -159.912)" fill="#dbdbdb"/></g><g transform="translate(3.95 2.772)"><path d="M469.288,205.247l-9.593-12.008-16.365,6.929-5.643-2.309v-5.08l16.365-6.928-9.593-12.008,3.385-4.157h6.77l9.593,12.008,16.367-6.93,5.643,2.309v5.08l-16.365,6.928,9.593,12.008-3.385,4.157Zm-9.029-12.932,9.593,12.47h5.643l2.822-3.695-9.593-12.47,16.929-6.928v-4.159l-5.079-2.309-16.929,6.928-9.593-12.008h-5.643l-2.822,3.695,9.593,12.008-16.929,7.39V197.4l5.079,2.309Z" transform="translate(-437.686 -169.686)" fill="#dbdbdb"/></g><g transform="translate(3.95 2.771)"><path d="M447.844,205.246l-3.385-4.157,9.593-12.008-16.365-6.928v-5.08l5.643-2.309,16.365,6.928,9.593-12.008h6.77l3.385,4.157-9.593,12.008,16.365,6.928v5.08l-5.641,2.311-16.365-6.928-9.593,12.008Zm-2.257-4.157,2.822,3.695h5.643l9.593-12.47,16.929,7.39,5.079-2.309v-4.157l-16.929-7.39,9.593-12.008-2.822-3.695h-5.643l-9.593,12.008-16.929-6.928-5.079,2.308v4.157l16.929,6.928Z" transform="translate(-437.687 -169.683)" fill="#dbdbdb"/></g></g><g transform="translate(48.845 66.494)"><g transform="translate(0 0)"><path d="M-9.152,185.233l-3.95-1.386v-3.695l3.95-1.847,4.514,1.847v3.695Zm-2.822-1.847,2.822,1.386,3.385-1.386v-2.77l-3.385-1.386-2.822,1.386Z" transform="translate(13.102 -178.305)" fill="#dbdbdb"/></g></g><g transform="translate(101.448 66.494)"><g transform="translate(0 0)"><path d="M134.381,185.233l-3.95-1.386v-3.695l3.95-1.847,4.514,1.847v3.695Zm-2.822-1.847,2.822,1.386,3.385-1.386v-2.77l-3.385-1.386-2.822,1.386Z" transform="translate(-130.431 -178.305)" fill="#dbdbdb"/></g></g><g transform="translate(154.052 66.494)"><g transform="translate(0 0)"><path d="M278.507,185.233l-4.514-1.386v-3.695l4.514-1.847,3.95,1.847v3.695Zm-3.385-1.847,3.385,1.386,2.822-1.386v-2.77l-2.822-1.386-3.385,1.386Z" transform="translate(-273.993 -178.305)" fill="#dbdbdb"/></g></g><g transform="translate(206.654 66.494)"><g transform="translate(0 0)"><path d="M422.067,185.233l-4.514-1.386v-3.695l4.514-1.847,3.95,1.847v3.695Zm-3.385-1.847,3.385,1.386,3.385-1.386v-2.77l-3.385-1.386-3.385,1.386Z" transform="translate(-417.553 -178.305)" fill="#dbdbdb"/></g></g><g transform="translate(0 119.434)"><g transform="translate(0 0)"><path d="M-119.006,449.481l-5.643-2.309V432.854h-19.187l-2.822-4.157,2.822-4.157h19.187V410.685l5.643-2.77,6.208,2.77v13.855h18.623l3.385,4.157-3.385,4.157H-112.8v14.317Zm-5.079-2.77,5.079,2.309,5.079-2.309V432.393H-94.74l3.385-3.695L-94.74,425h-19.187V410.687l-5.079-1.847-5.079,1.847V425h-19.187l-2.822,3.695,2.822,3.695h19.187Z" transform="translate(146.657 -407.915)" fill="#dbdbdb"/></g><g transform="translate(3.384 2.769)"><path d="M-105.956,453.708l-9.029-12.008-16.365,6.928-6.208-2.309v-5.08l16.365-6.928-9.029-12.008,2.822-4.618h6.77l9.593,12.008,16.367-6.929,6.208,2.77v4.618l-16.933,7.393,9.593,12.008-3.385,4.157Zm-9.029-12.932,9.593,12.47h6.208l2.822-3.695-9.593-12.47,16.365-6.928v-4.618l-5.079-1.847-16.365,6.928-9.593-12.008h-6.208l-2.822,3.695,9.593,12.008-16.365,7.39v4.157l5.079,1.847Z" transform="translate(137.558 -417.684)" fill="#dbdbdb"/></g><g transform="translate(3.385 2.77)"><path d="M-127.4,453.709l-2.822-4.157,9.029-12.008-16.365-7.39v-4.618l6.208-2.77,16.365,6.928,9.029-12.008h6.77L-95.8,422.3l-9.593,12.008,16.929,6.928v5.08l-6.208,2.309-16.363-6.927-9.593,12.007Zm-2.257-4.157,2.822,3.695h6.208l9.593-12.47,16.365,7.391,5.079-2.309V441.7l-16.365-7.39,9.593-12.008-2.822-3.695h-6.208l-9.593,12.008-16.365-6.928-5.079,1.847v4.618l16.365,6.928Z" transform="translate(137.557 -417.685)" fill="#dbdbdb"/></g></g><g transform="translate(45.023 145.296)"><path d="M-15.4,512.265l-7.9-3.233V502.1l7.9-3.233,7.9,3.233v6.928Zm-6.77-3.695,6.77,3.233,7.336-3.234v-6l-7.336-3.233-6.77,3.233Z" transform="translate(23.304 -498.871)" fill="#dbdbdb"/><g transform="translate(3.95 3.233)"><path d="M-9.152,517.275l-3.95-1.847v-3.233l3.95-1.847,4.514,1.847v3.233Zm-2.822-1.847,2.822,1.386,3.385-1.386v-2.771l-3.385-1.386-2.822,1.386Z" transform="translate(13.102 -510.347)" fill="#dbdbdb"/></g></g><g transform="translate(52.023 119.434)"><g transform="translate(0 0)"><path d="M24.556,449.481l-5.643-2.309V432.854H.285L-3.1,428.7l3.385-4.157H18.91V410.685l5.643-2.77,6.208,2.77v13.855H49.384l3.385,4.157-3.385,4.157H30.761v14.317Zm-4.514-2.77,4.514,2.309,5.079-2.309V432.393H49.384l2.822-3.695L49.384,425H29.633V410.687l-5.077-1.848-4.514,1.847V425H.285L-2.537,428.7l2.822,3.7H20.039Z" transform="translate(3.1 -407.915)" fill="#dbdbdb"/></g><g transform="translate(3.385 2.77)"><path d="M38.169,453.709,28.575,441.7,12.21,448.63,6,446.32v-5.08l16.365-6.928L13.339,422.3l3.385-4.618h6.208l9.593,12.008,16.365-6.93,6.208,2.77v4.618l-16.365,7.393,9.029,12.008-3.385,4.157Zm-9.593-12.932,9.593,12.47h6.208l2.82-3.694L37.6,437.083l16.363-6.928v-4.618l-5.079-1.847-16.362,6.928L22.932,418.61H16.724L13.9,422.3,23.5,434.312,7.131,441.7v4.157l5.079,1.847Z" transform="translate(-6 -417.686)" fill="#dbdbdb"/></g><g transform="translate(3.385 2.771)"><path d="M16.725,453.71l-3.385-4.157,9.029-12.008L6,430.156v-4.618l6.208-2.77L28.573,429.7l9.593-12.008h6.208l3.385,4.618-9.025,12.008L55.1,441.241v5.08l-6.208,2.309L32.526,441.7,22.933,453.71ZM13.9,449.553l2.822,3.695h6.208l9.593-12.47,16.365,7.391,5.079-2.309V441.7L37.6,434.313,47.2,422.3l-2.822-3.695H38.169l-9.593,12.008L12.21,423.691l-5.079,1.847v4.618L23.5,437.084Z" transform="translate(-6 -417.687)" fill="#dbdbdb"/></g></g><g transform="translate(97.539 145.296)"><path d="M128.131,512.265l-7.9-3.233V502.1l7.9-3.233L136.6,502.1v6.928Zm-6.77-3.7,6.77,3.233,7.336-3.233v-6l-7.336-3.233-6.77,3.233Z" transform="translate(-120.23 -498.871)" fill="#dbdbdb"/><g transform="translate(3.95 3.233)"><path d="M134.381,517.275l-3.95-1.847v-3.233l3.95-1.847,4.514,1.847v3.233Zm-2.822-1.847,2.822,1.386,3.385-1.386v-2.771l-3.385-1.386-2.822,1.386Z" transform="translate(-130.431 -510.347)" fill="#dbdbdb"/></g></g><g transform="translate(104.052 119.434)"><g transform="translate(0 0)"><path d="M168.68,449.481l-6.208-2.309V432.854H143.85l-3.385-4.157,3.385-4.157h18.623V410.685l6.208-2.77,5.643,2.77v13.855h18.623l3.385,4.157-3.385,4.157H174.323v14.317Zm-5.079-2.77,5.079,2.309,5.079-2.309V432.393h19.187l2.822-3.695L192.946,425H173.759V410.687l-5.079-1.847-5.079,1.847V425H143.85l-2.822,3.695,2.822,3.695H163.6Z" transform="translate(-140.465 -407.915)" fill="#dbdbdb"/></g><g transform="translate(3.385 2.769)"><path d="M181.73,453.708,172.137,441.7l-16.365,6.928-6.208-2.309v-5.08l16.929-6.928L156.9,422.3l3.385-4.618h6.77l9.029,12.008,16.367-6.929,6.208,2.77v4.618l-16.365,7.393,9.029,12.008-2.822,4.157Zm-9.593-12.932,9.593,12.47h6.208l2.822-3.695-9.593-12.47,16.365-6.928v-4.618l-5.079-1.847-16.365,6.928-9.593-12.008h-6.208l-2.822,3.695,9.593,12.008-16.365,7.39v4.157l5.079,1.847Z" transform="translate(-149.564 -417.684)" fill="#dbdbdb"/></g><g transform="translate(3.386 2.77)"><path d="M160.287,453.709l-3.385-4.157,9.593-12.008-16.929-7.39v-4.618l6.208-2.77,16.365,6.928,9.593-12.008h6.77l2.822,4.618L182.3,434.312l16.365,6.928v5.08l-6.208,2.309L176.088,441.7l-9.029,12.007Zm-2.822-4.157,2.822,3.695h6.208l9.593-12.47,16.365,7.391,5.079-2.309V441.7l-16.365-7.39L190.76,422.3l-2.822-3.695h-6.208l-9.593,12.008-16.365-6.928-5.079,1.847v4.618l16.365,6.928Z" transform="translate(-149.566 -417.685)" fill="#dbdbdb"/></g></g><g transform="translate(150.06 145.296)"><g transform="translate(0)"><path d="M272.256,512.265l-8.465-3.233V502.1l8.465-3.233,7.9,3.233v6.928Zm-7.336-3.695,7.336,3.233,6.77-3.233v-6l-6.77-3.233-7.336,3.233Z" transform="translate(-263.791 -498.871)" fill="#dbdbdb"/></g><g transform="translate(3.951 3.233)"><path d="M278.507,517.275l-4.514-1.847v-3.233l4.514-1.847,3.95,1.847v3.233Zm-3.385-1.847,3.385,1.386,2.822-1.386v-2.771l-2.822-1.386-3.385,1.386Z" transform="translate(-273.993 -510.347)" fill="#dbdbdb"/></g></g><g transform="translate(156.053 119.434)"><g transform="translate(0 0)"><path d="M312.24,449.481l-6.208-2.309V432.854H287.411l-3.385-4.157,3.385-4.157h18.623V410.685l6.208-2.77,5.643,2.77v13.855h19.187l3.385,4.157-3.385,4.157H317.884v14.317Zm-5.079-2.77,5.079,2.309,5.079-2.309V432.393h19.187l2.822-3.695L336.505,425H317.319V410.687l-5.079-1.847-5.079,1.847V425H287.974l-3.385,3.695,3.385,3.695h19.187Z" transform="translate(-284.026 -407.915)" fill="#dbdbdb"/></g><g transform="translate(3.948 2.769)"><path d="M325.724,453.708,316.13,441.7l-16.365,6.928-5.643-2.309v-5.08l16.365-6.928L300.894,422.3l3.385-4.618h6.77l9.029,12.008,16.933-6.929,5.643,2.77v4.618l-16.365,7.39,9.593,12.008-3.385,4.157Zm-9.593-12.932,10.155,12.47h5.643l2.822-3.695-9.593-12.47,16.365-6.928v-4.618l-4.514-1.847-16.929,6.928-9.593-12.008h-5.643l-3.385,3.695,9.593,12.008-16.362,7.39v4.157l5.079,1.847Z" transform="translate(-294.122 -417.684)" fill="#dbdbdb"/></g><g transform="translate(3.95 2.77)"><path d="M304.284,453.709l-3.385-4.157,9.593-12.008-16.365-7.39v-4.618l5.643-2.77,16.365,6.928,9.593-12.008h6.77l3.385,4.618-9.593,12.008,16.365,6.928v5.08l-5.643,2.309L320.085,441.7l-9.029,12.007Zm-2.822-4.157,3.385,3.695h5.643l9.593-12.47,16.931,7.391,4.514-2.309V441.7l-16.365-7.39,9.593-12.008-2.822-3.695h-5.643l-10.155,12.008-16.365-6.928-5.079,1.847v4.618l16.365,6.928Z" transform="translate(-294.127 -417.685)" fill="#dbdbdb"/></g></g><g transform="translate(203.141 145.296)"><path d="M416.252,512.265l-7.9-3.233V502.1l7.9-3.233,7.9,3.233v6.928Zm-7.336-3.695,7.336,3.233,6.77-3.233v-6l-6.77-3.233-7.336,3.233Z" transform="translate(-408.351 -498.871)" fill="#dbdbdb"/><g transform="translate(3.386 3.233)"><path d="M422.067,517.275l-4.514-1.847v-3.233l4.514-1.847,3.95,1.847v3.233Zm-3.385-1.847,3.385,1.386,3.385-1.386v-2.771l-3.385-1.386-3.385,1.386Z" transform="translate(-417.553 -510.347)" fill="#dbdbdb"/></g></g><g transform="translate(208.07 119.434)"><g transform="translate(0 0)"><path d="M455.8,449.481l-6.207-2.309V432.854H430.971l-3.385-4.157,3.385-4.157h18.623V410.685l6.207-2.77,5.643,2.77v13.855h19.187l3.385,4.157-3.385,4.157H461.446v14.317Zm-5.079-2.77,5.079,2.309,5.079-2.309V432.393h19.187l2.822-3.695L480.067,425H460.88V410.687l-5.079-1.847-5.079,1.847V425H431.536l-2.822,3.695,2.822,3.695h19.187Z" transform="translate(-427.586 -407.915)" fill="#dbdbdb"/></g><g transform="translate(3.95 2.769)"><path d="M469.288,453.708,459.694,441.7l-16.365,6.928-5.643-2.309v-5.08l16.365-6.928L444.458,422.3l3.385-4.618h6.77l9.593,12.008,16.367-6.929,5.643,2.77v4.618l-16.365,7.39,9.593,12.008-3.385,4.157Zm-9.029-12.932,9.593,12.47h5.643l2.822-3.695-9.593-12.47,16.929-6.928v-4.618l-5.079-1.847-16.929,6.928-9.593-12.008h-5.643l-2.822,3.695,9.593,12.008L438.25,441.7v4.157l5.079,1.847Z" transform="translate(-437.686 -417.684)" fill="#dbdbdb"/></g><g transform="translate(3.95 2.77)"><path d="M447.844,453.709l-3.385-4.157,9.593-12.008-16.365-7.39v-4.618l5.643-2.77,16.365,6.928,9.593-12.008h6.77l3.385,4.618-9.593,12.008,16.365,6.928v5.08l-5.643,2.309L464.21,441.7l-9.593,12.007Zm-2.257-4.157,2.822,3.695h5.643l9.593-12.47,16.93,7.391,5.079-2.309V441.7l-16.929-7.39,9.593-12.008-2.822-3.695h-5.643l-9.593,12.008-16.929-6.928-5.079,1.847v4.618l16.929,6.928Z" transform="translate(-437.687 -417.685)" fill="#dbdbdb"/></g></g><g transform="translate(48.845 124.975)"><g transform="translate(0)"><path d="M-9.152,434.235l-3.95-1.847v-3.233l3.95-1.847,4.514,1.847v3.233Zm-2.822-1.847,2.822,1.386,3.385-1.386v-2.77l-3.385-1.386-2.822,1.386Z" transform="translate(13.102 -427.307)" fill="#dbdbdb"/></g></g><g transform="translate(101.448 124.975)"><path d="M134.381,434.235l-3.95-1.847v-3.233l3.95-1.847,4.514,1.847v3.233Zm-2.822-1.847,2.822,1.386,3.385-1.386v-2.77l-3.385-1.386-2.822,1.386Z" transform="translate(-130.431 -427.307)" fill="#dbdbdb"/></g><g transform="translate(154.052 124.975)"><g transform="translate(0)"><path d="M278.507,434.235l-4.514-1.847v-3.233l4.514-1.847,3.95,1.847v3.233Zm-3.385-1.847,3.385,1.386,2.822-1.386v-2.77l-2.822-1.386-3.385,1.386Z" transform="translate(-273.993 -427.307)" fill="#dbdbdb"/></g></g><g transform="translate(206.654 124.975)"><path d="M422.067,434.235l-4.514-1.847v-3.233l4.514-1.847,3.95,1.847v3.233Zm-3.385-1.847,3.385,1.386,3.385-1.386v-2.77l-3.385-1.386-3.385,1.386Z" transform="translate(-417.553 -427.307)" fill="#dbdbdb"/></g><g transform="translate(65.861 56.357)"><path d="M62.636,144.252l-3.95-1.847v-3.233l3.95-1.847,4.514,1.847V142.4Zm-2.822-2.309,2.822,1.847,3.385-1.847v-2.77l-3.385-1.386-2.822,1.386Z" transform="translate(-58.686 -137.324)" fill="#dbdbdb"/><g transform="translate(55.304)"><path d="M206.774,144.252,202.26,142.4v-3.233l4.514-1.847,3.95,1.847V142.4Zm-3.385-2.309,3.385,1.847,2.822-1.847v-2.77l-2.822-1.386-3.385,1.386Z" transform="translate(-202.26 -137.324)" fill="#dbdbdb"/></g><g transform="translate(111.171)"><path d="M350.781,144.252l-3.95-1.847v-3.233l3.95-1.847,3.95,1.847V142.4Zm-3.385-2.309,3.385,1.847,3.385-1.847v-2.77l-3.385-1.386-3.385,1.386Z" transform="translate(-346.831 -137.324)" fill="#dbdbdb"/></g><g transform="translate(166.473)"><path d="M494.352,144.252,490.4,142.4v-3.233l3.95-1.847,3.95,1.847V142.4Zm-3.385-2.309,3.385,1.847,3.385-1.847v-2.77l-3.385-1.386-3.385,1.386Z" transform="translate(-490.402 -137.324)" fill="#dbdbdb"/></g></g></g></g><g transform="translate(1248 540)"><path d="M432.114,171.95H167.193a17.423,17.423,0,0,0-17.538,17.321V366.127a17.423,17.423,0,0,0,17.538,17.321H420.575V351.084H172.736V196.566h253.84V351.084H418.73v32.822h13.387a17.423,17.423,0,0,0,17.538-17.321V189.275a17.423,17.423,0,0,0-17.538-17.321ZM302.888,357.923a10.941,10.941,0,1,1-11.077,10.94A11.162,11.162,0,0,1,302.888,357.923Z" transform="translate(-149.655 -171.95)" fill="#ededed"/><path d="M405.227,525.482v30.943H300.79V525.482h11.122V502.756h82.193v22.726Z" transform="translate(-203.007 -285.971)" fill="#ededed"/></g><g transform="translate(1396.94 575.141)"><path d="M435.2,479.07h19.875v37.808H435.2Z" transform="translate(-372.338 -384.019)" fill="#3b7937"/><path d="M333.52,433.8h19.875v51.845H333.52Z" transform="translate(-302.198 -352.791)" fill="#3b7937"/><path d="M232.54,532h19.875v21.387H232.54Z" transform="translate(-232.54 -420.531)" fill="#3b7937"/><path d="M536.18,334.91h19.875v82.522H536.18Z" transform="translate(-441.995 -284.575)" fill="#3b7937"/><path d="M353.445,243.511a5.348,5.348,0,0,1-5.4,5.4,7.043,7.043,0,0,1-3.024-.864l-26.14,25.276a6.119,6.119,0,0,1,.864,2.806,5.4,5.4,0,1,1-10.8,0V275.7L285.829,267.7a5.709,5.709,0,0,1-4.753,2.378,4.91,4.91,0,0,1-3.459-1.3L256.879,291.9a5.4,5.4,0,1,1-4.321-2.16,5.976,5.976,0,0,1,2.806.648l20.954-23.115a4.35,4.35,0,0,1-.648-2.376,5.4,5.4,0,1,1,10.8,0v.648l22.9,7.994a5.369,5.369,0,0,1,4.752-2.806,5.828,5.828,0,0,1,3.24,1.079l26.14-25.491a4.34,4.34,0,0,1-.864-2.806,5.4,5.4,0,1,1,10.8,0Z" transform="translate(-242.624 -217.801)" fill="#cf9921"/><path d="M443.68,172.639H411.923a3.871,3.871,0,0,0-3.888,3.888V196.4a3.871,3.871,0,0,0,3.888,3.888h2.16v8.425l12.745-8.425H443.68a3.871,3.871,0,0,0,3.888-3.888V176.311a3.833,3.833,0,0,0-3.89-3.672Zm-25.922,17.067a4.321,4.321,0,1,1,4.321-4.321A4.321,4.321,0,0,1,417.758,189.705Zm10.152,0a4.321,4.321,0,1,1,4.321-4.321,4.321,4.321,0,0,1-4.321,4.321Zm9.938,0a4.321,4.321,0,1,1,4.321-4.321A4.08,4.08,0,0,1,437.848,189.705Z" transform="translate(-353.599 -172.638)" fill="#cf9921"/></g><g transform="translate(1293.177 606.488)"><path d="M470.757,302.4V261.79a42.3,42.3,0,0,0-37.549,52.11,41.808,41.808,0,0,0,9.194,18.392Z" transform="translate(-432.02 -261.02)" fill="#707070"/><path d="M473.1,304.96,447.04,332.545c14.557,11.493,36.784,12.263,52.876,0Z" transform="translate(-430.516 -256.689)" fill="#ededed"/><path d="M474.2,261.09V301.7l28.356,29.884C525.546,305.532,508.684,264.154,474.2,261.09Z" transform="translate(-427.791 -261.09)" fill="#cf9921"/></g></g></svg>