<svg xmlns="http://www.w3.org/2000/svg" width="14.458" height="33.333" viewBox="0 0 14.458 33.333"><path d="M14.618,4.645A3.549,3.549,0,0,1,18.286,1.23a3.549,3.549,0,0,1,3.669,3.415A3.549,3.549,0,0,1,18.286,8.06a3.549,3.549,0,0,1-3.669-3.415Zm9.6,17.075a1.3,1.3,0,0,0,.872-.472,1.122,1.122,0,0,0,.229-.914l-2.311-9.22a2.924,2.924,0,0,0-2.495-2.107.818.818,0,0,0-.613.167l-.987.782a1.326,1.326,0,0,1-1.629,0L16.3,9.173a.818.818,0,0,0-.605-.167,2.917,2.917,0,0,0-2.48,2.121l-2.311,9.22a1.122,1.122,0,0,0,.229.914,1.3,1.3,0,0,0,.872.472,1.269,1.269,0,0,0,.5-.038l-1.1,4.282a.719.719,0,0,0,.162.636.839.839,0,0,0,.634.282h3.265l.642,6.669a1.179,1.179,0,0,0,1.2,1h1.622a1.179,1.179,0,0,0,1.2-1l.642-6.669h3.265a.839.839,0,0,0,.634-.282.719.719,0,0,0,.162-.636l-1.1-4.282a1.271,1.271,0,0,0,.492.024Z" transform="translate(-10.885 -1.23)" fill="#bf0f60"/></svg>