<svg xmlns="http://www.w3.org/2000/svg" width="13.273" height="33.272" viewBox="0 0 13.273 33.272"><path d="M59.839,8.11a3.562,3.562,0,0,0,3.693-3.415,3.7,3.7,0,0,0-7.386,0A3.562,3.562,0,0,0,59.839,8.11Zm-6.614,4.118.909,6.324a2.5,2.5,0,0,0,1.728,2.028l1.533,12.977a1.186,1.186,0,0,0,1.208.994h2.426a1.182,1.182,0,0,0,1.2-.994l1.529-12.977a2.506,2.506,0,0,0,1.787-2.049l.909-6.324a2.75,2.75,0,0,0-.774-2.252,3.242,3.242,0,0,0-2.332-.965H62.066a.816.816,0,0,0-.417.167l-.993.782a1.342,1.342,0,0,1-1.64,0l-.986-.765a.815.815,0,0,0-.414-.167H56.331A3.242,3.242,0,0,0,54,9.974,2.749,2.749,0,0,0,53.225,12.228Z" transform="translate(-53.204 -1.28)" fill="#00619a"/></svg>